<svg xmlns="http://www.w3.org/2000/svg" xmlns:xlink="http://www.w3.org/1999/xlink" viewBox="0 0 180 149.84"><defs><style>.cls-1{opacity:0.1;fill:url(#IM_gradient);}.cls-2{opacity:0.2;fill:url(#IM_gradient-2);}.cls-3{fill:#233862;}.cls-4{fill:#3c567f;}.cls-5{fill:#ecf1f9;}.cls-6{fill:#122749;}.cls-7{fill:#bc3f3f;}.cls-8{fill:#ced1ec;}.cls-9{fill:#a53d38;}.cls-10{fill:#ffd186;}.cls-11{fill:#fcba64;}.cls-12{fill:#2c3a64;}.cls-13{fill:#ffb27d;}.cls-14{fill:#ed985f;}.cls-15{fill:#ffccbe;}.cls-16{fill:#7a97f3;}.cls-17{fill:#466aa5;}.cls-18{fill:#ed975d;}.cls-19{fill:#223d75;}.cls-20{fill:#2c2c2c;}.cls-21{fill:#599dad;}.cls-22{fill:#79c8cc;}.cls-23{fill:#6bb7bf;}.cls-24{fill:#f1a34f;}.cls-25{fill:#ffb973;}.cls-26{fill:#d86713;}</style><linearGradient id="IM_gradient" x1="10.81" y1="74.92" x2="179.58" y2="74.92" gradientUnits="userSpaceOnUse"><stop offset="0" stop-color="#0e3997"/><stop offset="0.49" stop-color="#007cc4"/><stop offset="1" stop-color="#00aeef"/></linearGradient><linearGradient id="IM_gradient-2" x1="0" y1="70.2" x2="180" y2="70.2" xlink:href="#IM_gradient"/></defs><g id="Layer_2" data-name="Layer 2"><g id="Layer_1-2" data-name="Layer 1"><path class="cls-1" d="M25.07,12.39c-38.17,32.4,5.55,118.38,69,136.35,19.44,4.25,41.73-4.24,58.68-18.62,17.42-14.79,29.21-35.8,26.46-55.61C173.5,33.52,124.2,6.77,88,1.6c-30.52-4.36-50.83.52-62.93,10.79"/><path class="cls-2" d="M179.25,70.08c8.1-55.58-51.31-75.75-88.5-62.93C49,21.55,6.3,6,.48,63.43-10.45,171.4,167.75,149,179.25,70.08Z"/><path class="cls-3" d="M118.51,78.17a107.27,107.27,0,0,1,1.28-13.45c.92-5.25,1.75-8.28,1.76-8.31.12-.46,1.87-2.33,5.77-2.27s3.53,2.51,3.53,2.51h0a.73.73,0,0,1,0,.22,116.21,116.21,0,0,0-3.46,29.43c0,.23-.07.62-.09.88,0,0-8.93.25-8.93,0C118,85.76,118.18,81.76,118.51,78.17Z"/><path class="cls-4" d="M117.37,86.22c0,.23.13.42.28.42h0c.15,0,.27-.19.27-.42h7.74c0,.23.13.42.28.42h0c.15,0,.27-.2.27-.43a113.32,113.32,0,0,1,.65-13,101.42,101.42,0,0,1,3-16.3.73.73,0,0,0,0-.22s.37-2.45-3.53-2.51-5.65,1.81-5.77,2.27c0,0-.47,1.74-1.1,4.82-.21,1-.43,2.18-.66,3.49a109.21,109.21,0,0,0-1.28,13.45A34.38,34.38,0,0,0,117.37,86.22Z"/><path class="cls-3" d="M117.37,86.22c0,.23.13.42.28.42h0c.15,0,.27-.19.27-.42h7.74c0,.23.13.42.28.42h0c.15,0,.27-.2.27-.43a113.32,113.32,0,0,1,.65-13c-1.28-6.17-6.23-10.89-7.42-11.94-.21,1-.43,2.18-.66,3.49a109.21,109.21,0,0,0-1.28,13.45A34.38,34.38,0,0,0,117.37,86.22Z"/><path class="cls-3" d="M125.17,86.14h0s0,0,0,0h0a.21.21,0,0,0-.06-.16,5,5,0,0,0-2.37-.23,24,24,0,0,1-4.51-.24c-.26,0-.58-.58-.35-4.65.15-2.52.45-5.52.67-7.71.1-1,.18-1.79.21-2.26h0a113.85,113.85,0,0,1,2.63-14c.1-.37,1.43-1.76,4.33-1.72a3,3,0,0,1,2.31.8,1.54,1.54,0,0,1,.36,1.11.48.48,0,0,1,0,.18s-2,11.58-2.34,14.34c-.53,4.54-.75,14-.76,14.53v0l0,0Zm-1.73-.53c.87,0,1.48,0,1.69.26h0c0-.22,0-.63,0-1.39,0-.91.07-2.32.13-3.91.11-2.78.31-6.61.59-9,.34-2.83,2.34-14.32,2.35-14.36a.68.68,0,0,0,0-.15h0a1.4,1.4,0,0,0-.34-1,2.88,2.88,0,0,0-2.24-.77,6.38,6.38,0,0,0-3.18.69,2.43,2.43,0,0,0-1.07,1,113.1,113.1,0,0,0-2.62,14c0,.46-.12,1.26-.22,2.26-.21,2.19-.51,5.18-.66,7.7-.21,3.7,0,4.52.27,4.56a24.84,24.84,0,0,0,4.5.25Z"/><path class="cls-3" d="M126.78,86.64H96.44s.71-2.82,18.28-2.4C127.16,84.53,126.78,86.64,126.78,86.64Z"/><path class="cls-4" d="M129.25,116.09h-.65a84.72,84.72,0,0,1-4.45-24,28.12,28.12,0,0,1,.1-4.88c0-.08.21-.12.42-.14a10,10,0,0,1,1.21,0c.27,0,.77.25.77.52,0,0-.06.73-.09,2A123.56,123.56,0,0,0,129.25,116.09Z"/><path class="cls-4" d="M101.58,116.09h-.65a128.19,128.19,0,0,0,2.71-24.74h0c0-2.39-.1-3.69-.11-3.74,0-.27.5-.51.77-.52s1.49-.08,1.63.15a11.71,11.71,0,0,1,.13,2A82.5,82.5,0,0,1,101.58,116.09Z"/><path class="cls-3" d="M95.31,116.09c3.52-17.56,2.62-28.34,2.61-28.48s.5-.51.77-.52,1.49-.08,1.63.15.89,13.58-4.35,28.85Z"/><path class="cls-3" d="M123.6,116.09C120.08,98.53,121,87.75,121,87.61s-.49-.51-.76-.52-1.49-.08-1.63.15-.9,13.58,4.35,28.85Z"/><rect class="cls-3" x="95.81" y="85.91" width="31.58" height="1.63" rx="0.81" transform="translate(223.19 173.44) rotate(180)"/><path class="cls-3" d="M126.65,87.61s-.06.73-.09,2a3.49,3.49,0,0,0-2.41,2.49,28.12,28.12,0,0,1,.1-4.88l.42-.14a10,10,0,0,1,1.21,0C126.15,87.1,126.65,87.34,126.65,87.61Z"/><path class="cls-3" d="M106.06,89.26h0a2.89,2.89,0,0,0-2.42,2.09c0-2.39-.1-3.69-.11-3.74,0-.27.5-.51.77-.52s1.49-.08,1.63.15A11.71,11.71,0,0,1,106.06,89.26Z"/><path class="cls-5" d="M24.73,88.84H13.6c.08-.67.19-1.35.33-2,0-.12.05-.24.08-.36a30.84,30.84,0,0,1,1.83-5.7c.23-.53.47-1,.73-1.58,3-.25,5.95-.17,5.95-.17a5.17,5.17,0,0,1,.92,1.39,17.93,17.93,0,0,1,1.28,6.52C24.76,88.06,24.73,88.84,24.73,88.84Z"/><path class="cls-3" d="M70.66,116.11h-.22a.64.64,0,0,1-.61-.44l-2.11-6.94h0l-1.66-5.45h2.76l.27,1.59,1.85,10.91A.28.28,0,0,1,70.66,116.11Z"/><path class="cls-6" d="M67.72,108.73l-1.66-5.45h2.76l.27,1.59A4.87,4.87,0,0,0,67.72,108.73Z"/><path class="cls-7" d="M76.1,87.51v11H11a31.35,31.35,0,0,1-.53-7.41c0-.75.1-1.52.2-2.29s.19-1.35.33-2h1.88c2.14,0,4.71,0,7.49.08h1.81c2.43,0,5,.1,7.48.17l1.81,0c2.65.09,5.21.2,7.48.34l1.81.12,1.4.11c1.49.13,3.14.2,4.87.22h3c2.44,0,5-.11,7.48-.22l.91,0,.59,0h.31l1.33-.06.4,0,5.76-.28,1.81-.08c1.32,0,2.53-.08,3.58-.07h.67c.69,0,1.3,0,1.8.09A4.5,4.5,0,0,1,76.1,87.51Z"/><path class="cls-8" d="M74.75,88.84s-.33-6.56-1-8.7l-2,8.7Z"/><path class="cls-5" d="M62.64,79s7.83-.2,11.11,1.14c0,0,.07,7.09-2,8.7H60.43S60.1,81.68,62.64,79Z"/><path class="cls-8" d="M60.9,88.84s-.33-6.56-1-8.7l-2,8.7Z"/><path class="cls-5" d="M48.79,79s7.83-.2,11.11,1.14c0,0,.07,7.09-2,8.7H46.58S46.25,81.68,48.79,79Z"/><path class="cls-9" d="M76.1,91.94v5.8a.8.8,0,0,1-.79.8H10.74a30.82,30.82,0,0,1-.54-7.41H75.31A.8.8,0,0,1,76.1,91.94Z"/><path class="cls-3" d="M77.94,98.54V69.29h0v-.44a1.4,1.4,0,0,0-1.38-1.4H21.34l0,0c-.58.57-1.16,1.18-1.74,1.82l-.08.08V98.54H11.91V80.75a30.16,30.16,0,0,0-1.84,5.7V98.54H10c0,.12.05.24.07.36.12.59.26,1.17.41,1.74.24.91.51,1.79.8,2.64H76.07a1.87,1.87,0,0,0,1.87-1.86V98.54ZM66.67,69.29V98.54h-7.6V69.29Zm-9.43,0V98.54h-7.6V69.29h7.6Zm-9.44,0V98.54H40.21V69.29Zm-17,0h7.6V98.54h-7.6ZM21.34,91.13V69.29h7.6V98.54h-7.6ZM68.5,98.54V69.29h7.6V98.54Z"/><path class="cls-3" d="M17.27,116.11h.23a.62.62,0,0,0,.6-.44l2.12-6.94h0l1.66-5.45H19.12l-.27,1.59L17,115.78A.29.29,0,0,0,17.27,116.11Z"/><path class="cls-6" d="M20.22,108.73l1.66-5.45H19.12l-.27,1.59A4.91,4.91,0,0,1,20.22,108.73Z"/><path class="cls-3" d="M10,98.54v2.88a1.87,1.87,0,0,0,1.87,1.86H76.66c.29-.85.56-1.73.8-2.64.15-.57.28-1.15.4-1.74,0-.12,0-.24.08-.36h-.08V86.45A30.11,30.11,0,0,0,76,80.75V98.54h-7.6V69.37l-.07-.08c-.58-.64-1.16-1.25-1.74-1.82l0,0H11.38A1.4,1.4,0,0,0,10,68.85v.44h0V98.54ZM28.87,69.29V98.54h-7.6V69.29Zm9.43,0h0V98.54H30.7V69.29Zm1.83,0h7.6V98.54h-7.6V69.29Zm17,29.25H49.57V69.29h7.59Zm9.44,0H59V69.29h7.6V98.54Zm-54.76,0V69.29h7.59V98.54Z"/><path class="cls-10" d="M74,74.67c-1.06-.19-5.82-1.24-5.82-1.24s2.25-5.16,3.46-5.2a1.31,1.31,0,0,1,1.15.59c.52.71.3,1.83.7,2.18a6.23,6.23,0,0,1,.8.84l0,0s0,0,0,0C75.46,73.45,75.18,74.9,74,74.67Z"/><path class="cls-11" d="M74.24,71.84c-.43-.47-2.35-.21-2.64-.56s.68-.58,1-1.07a2.29,2.29,0,0,0,.14-1.39h0c.52.71.3,1.83.7,2.18A6.23,6.23,0,0,1,74.24,71.84Z"/><path class="cls-10" d="M65.63,77.55c.69-.83,3.68-4.69,3.68-4.69s-5-2.51-6-1.78a1.3,1.3,0,0,0-.51,1.19c0,.88.95,1.6.86,2.12a6.86,6.86,0,0,0-.08,1.16.09.09,0,0,0,0,0v0C63.69,77.57,64.83,78.5,65.63,77.55Z"/><path class="cls-11" d="M63.59,75.55c0-.64,1.67-1.66,1.68-2.12s-.9,0-1.46-.18-1-1-1-1h0c0,.88.95,1.6.86,2.12A6.86,6.86,0,0,0,63.59,75.55Z"/><path class="cls-11" d="M68.87,73.69a6.3,6.3,0,0,0-.61,3.79s.18-.18.33-.3l.41.39a13.69,13.69,0,0,1,.11-3.64C69.45,73.1,68.87,73.69,68.87,73.69Z"/><path class="cls-11" d="M68.88,73.49a6,6,0,0,0,2.54,2.59,3.13,3.13,0,0,1,0-.42l.52-.09a13,13,0,0,1-2.71-2.12C68.76,72.72,68.88,73.49,68.88,73.49Z"/><path class="cls-11" d="M67.54,72.78c.08-.65.63-1.33,1.3-1s1.1.66,1,1.3a1.08,1.08,0,0,1-1.31,1A1.27,1.27,0,0,1,67.54,72.78Z"/><path class="cls-12" d="M107.64,33.6a9,9,0,0,0-6.6,1.83c-3.78,2.93-4.8,6.65-4,8.91s.61,3.53-.6,6.9c-.92,2.58,1,5.15,3,6.46s19.49-2.58,19.84-3.16-.12-5.86-3.22-7.38S113.58,32.3,107.64,33.6Z"/><path class="cls-13" d="M102.41,62.39c-.23.39-.46.76-.68,1.1A6.81,6.81,0,0,1,100,65.61c-1.22.36-1.73,0-1.73,0a11.74,11.74,0,0,1,.27-4.89,30.56,30.56,0,0,1,1-3.37,57.18,57.18,0,0,1,3.28-7.49C107.54,51.14,104.86,58.16,102.41,62.39Z"/><path class="cls-14" d="M106.48,108.31,105,109.58s-1.74-1.58-4.19-3.87c-2.09-2-4.7-4.42-7.19-6.85-4.45-4.35-8.51-8.57-8.53-9.51,0-3.53,2.08-4.44,2.08-4.44s8.52,6,10.93,8.33a14.3,14.3,0,0,1,1.3,1.49,47.33,47.33,0,0,1,5,8.88Q105.47,105.83,106.48,108.31Z"/><path class="cls-13" d="M107.1,52.12a5.28,5.28,0,0,0,3.4-.08c1.36-.66,2.08-1.53,2-2.35,0,0-1-1.15-1.67-4.74l-.27.11-4.45,1.76s.38,1.43.63,2.8A20.5,20.5,0,0,0,107.1,52.12Z"/><path class="cls-9" d="M99.44,94.73a19.2,19.2,0,0,1-5.78,4.13c-4.45-4.35-8.51-8.57-8.53-9.51,0-3.53,2.08-4.44,2.08-4.44s8.52,6,10.93,8.33A14.3,14.3,0,0,1,99.44,94.73Z"/><path class="cls-13" d="M104.2,49.31c3.48-.28,9.59-.3,13.41,2.33,0,0-1.74,17.2,1.79,25.75,1.26,3.06-15.6,0-15-1.9,1.46-4.29-4.67-12-3.52-17.14a29.78,29.78,0,0,0,.75-6.33A2.75,2.75,0,0,1,104.2,49.31Z"/><path class="cls-13" d="M117.68,84.43c-5.33,2.79-22.34,1.74-22.34,1.74C97,87.26,98.4,91.47,99.45,96c.64,2.77,1.16,5.66,1.54,8,.5,3.16.76,5.46.76,5.46l-2.85.84s-1-1.75-2.47-4.36c-1-1.74-2.12-3.86-3.31-6.11-3.59-6.82-7.4-14.77-6.69-16.64C88,79.25,111,73,111,73,120,69.4,121.57,82.39,117.68,84.43Z"/><path class="cls-7" d="M117.68,84.43c-4.05,2.12-14.84,2-19.79,1.85h0c-1.22,0-2.09-.08-2.41-.1h-.13C97,87.26,98.4,91.47,99.45,96a15.14,15.14,0,0,1-3.64,2.88,14,14,0,0,1-4,1.57c-3.59-6.82-6-15.34-5.34-17.21C88,79.25,111,73,111,73c4.94-2,7.64,1,8.43,4.52C120.07,80.37,119.43,83.51,117.68,84.43Z"/><path class="cls-9" d="M117.68,84.43c-4.05,2.12-14.84,2-19.79,1.85h0a19.83,19.83,0,0,0,16.29-7.38,19.74,19.74,0,0,1,5.26-1.37C120.07,80.37,119.43,83.51,117.68,84.43Z"/><path class="cls-14" d="M101.75,54.16c0-.15,1.4-2,1.47-1.79s-.89,2.58-.79,3.49S101.75,54.16,101.75,54.16Z"/><path class="cls-14" d="M106.12,46.82s.26,1,.55,2.37a5.2,5.2,0,0,0,3.9-4.13Z"/><path class="cls-10" d="M120.39,81.13c-1.79.93-7.25-1.87-8.77-3.38s-7.17-2.26-8.11-2.52.07-1.57.36-2.08S101,61,101,61c-1.52,0-3.32-2.2-3.32-2.2,0-3.23,4.16-7.77,4.16-7.77a9.38,9.38,0,0,0,6.62,2,7.92,7.92,0,0,0,5.34-3c.49-.18,5,2.29,4.79,6.68a4.93,4.93,0,0,1-.07.66,81.7,81.7,0,0,0-.9,11.35c-.06.82.87,3.29,1.74,5.82C120.43,77.5,121.37,80.62,120.39,81.13Z"/><path class="cls-13" d="M105.5,48.27s6.13-1,5.43-4.83-.37-6.5-4.31-6-4.44,2.08-4.51,3.41S103.89,48.44,105.5,48.27Z"/><path class="cls-13" d="M102.82,116.11c-.5,0-1.84-.25-2.36-.24s-2.41.24-2.41.24H93.56A4.58,4.58,0,0,1,96,114.76a6.69,6.69,0,0,0,2.87-2.41c.53-.75,0-2,0-2l2.85-.84a17.45,17.45,0,0,0,1.58,4.12C104.15,114.83,103.33,116.11,102.82,116.11Z"/><path class="cls-14" d="M102.41,62.39c-.23.39-.46.76-.68,1.1a.55.55,0,0,1-.18,0c-1.48-.32-2.73-2.24-3-2.76a30.56,30.56,0,0,1,1-3.37,2.47,2.47,0,0,1,.5,0C101.67,57.36,102.61,60.62,102.41,62.39Z"/><path class="cls-15" d="M99.41,57.7a2.49,2.49,0,1,1,2.49,2.49A2.48,2.48,0,0,1,99.41,57.7Z"/><path class="cls-14" d="M110.22,55s-5.13,1.41-4.63,4.17S110.22,55,110.22,55Z"/><path class="cls-12" d="M102.77,55.5a1.5,1.5,0,0,0-2.15-.49A3.11,3.11,0,0,0,99,57.36a2.69,2.69,0,0,0,3.53,2.75,1.69,1.69,0,0,0,.46-1.69c-.36-.89.12-2.45-.13-2.78A.85.85,0,0,1,102.77,55.5Z"/><path class="cls-15" d="M105.59,59.12s-.86.91-.67,1.58,1.56,0,2.49-.91.75-4,.62-4-.91,0-1,.3S106.4,58.66,105.59,59.12Z"/><path class="cls-11" d="M119.4,74.48c-2.82-.84-5.71-10-5.71-10.19s1.34-7.9,3.88-8.55c.37-.09.73.26,1.06.91a4.93,4.93,0,0,1-.07.66,81.7,81.7,0,0,0-.9,11.35C117.6,69.48,118.53,72,119.4,74.48Z"/><path class="cls-15" d="M107,56.07s-.65-.9-.47-1.06.28.22.36.2.18-.93.48-1,1,.85.67,1.51S107,56.07,107,56.07Z"/><path class="cls-16" d="M101.9,60.19s4.23,6,7.61,5.82,5.39-4.93,4.7-6-3.24-1.14-4.09-.73S104.65,55.7,101.9,60.19Z"/><path class="cls-17" d="M101.88,60.15s1.88-1.08,3-.38,1,2,2.08,2.47,4.79-.8,4.79-.8-.77,4.22-.86,4.33S101.67,61.66,101.88,60.15Z"/><path class="cls-13" d="M110,69.64c-3.58-.58-8.5-7.73-8.5-7.73l.53-1.32s7.18,4.47,7.52,4.34h0a.36.36,0,0,0,.12-.11A48.57,48.57,0,0,0,112.82,58c1.28-3.18,2.44-6.25,2.44-6.25C124.53,49.25,113.61,70.21,110,69.64Z"/><path class="cls-13" d="M102.08,62.24a17,17,0,0,1-3-2.15,4.53,4.53,0,0,1-.53-1.93,4.86,4.86,0,0,1,.7-2c.16-.07.3.83.2,1.41a.8.8,0,0,0,.33.71c.21.11.41.49.49.51.45.09-.11-1.13.22-1.31s.7,1.37.87,1.54a3.92,3.92,0,0,1,.56,1.12,3.12,3.12,0,0,0,.68.84Z"/><path class="cls-18" d="M108.44,110.57a5.23,5.23,0,0,0-.31,3.52c.38.84-.81,2-.81,2h-3.58c0-1.26,1.32-.9,1.52-2a28.39,28.39,0,0,0-.22-4.58s0-1.76,1.44-1.27C108.32,109,108.87,109.86,108.44,110.57Z"/><path class="cls-8" d="M108.44,110.57a5.23,5.23,0,0,0-.31,3.52c.38.84-.81,2-.81,2h-3.58c0-1.26,1.32-.9,1.52-2a18,18,0,0,0-.09-3.27,3.31,3.31,0,0,0-1.06-2.16c-.75-.69-1.89-1.74-3.26-3a7.36,7.36,0,0,0,3.6-2.1c.59,1.27,1.17,2.62,1.75,4a1.78,1.78,0,0,0,.9.93C108.44,109.18,108.81,110,108.44,110.57Z"/><path class="cls-5" d="M102.82,116.11c-.5,0-1.84-.25-2.36-.24s-2.41.24-2.41.24H93.56A4.58,4.58,0,0,1,96,114.76a6.69,6.69,0,0,0,2.87-2.41c.53-.75,0-2,0-2s-1-1.75-2.47-4.36a5.77,5.77,0,0,0,4.56-1.94c.5,3.16.76,5.46.76,5.46a17.45,17.45,0,0,0,1.58,4.12C104.15,114.83,103.33,116.11,102.82,116.11Z"/><path class="cls-13" d="M113,70.64c-.1-.31-2.4.17-2.64,0s1.31,0,1.25-.35-1.87-.32-2.11-.34a3.66,3.66,0,0,0-1.22.26,3.15,3.15,0,0,1-1.08,0s-4.45-6.43-5.67-6.73-3.31,2.13-3.31,2.13,3.76,4.46,8.31,5.75a16.69,16.69,0,0,0,3.57,1C111.1,72.39,113.11,71,113,70.64Z"/><path class="cls-14" d="M114.35,58.36c-.08,2.41-3.9,5.83-4.64,6.46A48.57,48.57,0,0,0,112.82,58C113.68,57.37,114.38,57.38,114.35,58.36Z"/><path class="cls-10" d="M113.84,50s3.44.74,4.57,1.94,1,6.28,1,6.28-1.8,1.84-6.87.36Z"/><path class="cls-12" d="M104.2,38s1.77,2.57,3.64,2.81a3.21,3.21,0,0,1,3.09,2.62c.51,1.6.67-7.75-1.67-7.51A13.75,13.75,0,0,0,104.2,38Z"/><path class="cls-12" d="M104.2,38s-1.7,1.55-1.34,3-.43,4.78-.43,4.78-3.69-4-2.3-6.2A3.91,3.91,0,0,1,104.2,38Z"/><path class="cls-19" d="M95.47,86.18h-.13A.2.2,0,0,1,95.47,86.18Z"/><path class="cls-9" d="M99.45,96a15.14,15.14,0,0,1-3.64,2.88c1.66-2.91-.47-12.72-.47-12.72C97,87.26,98.4,91.47,99.45,96Z"/><path class="cls-20" d="M98.22,56.77s-2.74-1.69-3.08-3.57a2.05,2.05,0,0,1,.43-1.69,9.66,9.66,0,0,0,1.89-5.37l.26.26a9.69,9.69,0,0,1-1.93,5.26,1.8,1.8,0,0,0-.49,1.53c.34,1.86,2.92,3.52,3,3.54Z"/><path class="cls-21" d="M137.58,96s3.46,2.58,4.14,2.42-2.54-2.78-2.54-2.78c1.21-.58,5-.21,5-.21s1.25,4,1.87,3.71-1.29-3.51-1.29-3.51a6.32,6.32,0,0,1,3,.91c2.26,1.78-.15,4.59-.15,4.59a6.92,6.92,0,0,0,1.89,2.65,5.93,5.93,0,0,1,2.18,4.19l-.37,0a10.43,10.43,0,0,0-1.65-3.69l-.18-.18c-.17-.16-.29-.28-.37-.37a5.38,5.38,0,0,0-1.62-1.22.72.72,0,0,0,0-.18l0,.18c-.12,1.41-2.87,2.65-4.56,2.91s-1.17-.44-.59-1.47,2.43-1.5,2.85-2-.45-.48-1.47,0-1.16,1.7-2.79,2.49-4.1-1.93-4.1-1.93c1.3-.07,3.17-1.48,3.1-1.92s-3.16.75-3.69.81-1.73-.6-1.92-2.73S137.58,96,137.58,96Z"/><path class="cls-22" d="M156,97.58s-3.83-2.14-2-5a7.62,7.62,0,0,1,3-2.24s-.82,4.33,0,4.44.56-4.9.56-4.9,4-1.94,5.61-1.79c0,0-2.5,4.24-1.68,4.14S165,87.79,165,87.79s4.13-.77,4.79,1.68-.41,3.67-1,3.83-4.54.1-4.44.61,2.76,1.33,4.24.87c0,0-1.64,4-3.78,3.82S162,97.07,160.66,97s-2.29.25-1.63.61,2.91.12,4,1,1.94,1.47,0,1.88-5.56.15-6.28-1.38Z"/><path class="cls-23" d="M155,101.3a8.12,8.12,0,0,0,1-3.72c1.22-3.87,11.93-7.34,11.93-7.34-13.61,5.51-11.22,8.87-11.22,8.87a6.82,6.82,0,0,0-1.3,2c0,.13-.14.32-.26.57h0c-.06.11-.1.2-.13.27a12.33,12.33,0,0,0-.33,4.78l-.42.12A7.09,7.09,0,0,1,155,101.3Z"/><path class="cls-23" d="M149.88,94.63s5.05-2.83,2.69-6.66a10,10,0,0,0-3.9-3s1.08,5.72,0,5.85-.74-6.45-.74-6.45-5.31-2.56-7.39-2.35c0,0,3.29,5.58,2.22,5.44S138,81.72,138,81.72s-5.45-1-6.32,2.22.53,4.84,1.34,5,6,.13,5.85.81-3.63,1.74-5.58,1.14c0,0,2.15,5.31,5,5s3.7-2,5.45-2.15,3,.34,2.15.81-3.83.15-5.24,1.35-2.56,1.94.06,2.48,7.33.2,8.27-1.82Z"/><path class="cls-21" d="M134.15,85s14.12,4.57,15.73,9.68a10.78,10.78,0,0,0,1.35,4.9,9.3,9.3,0,0,1,.93,7.34l-.56-.15s.49-4-.43-6.31l-.16-.36a8.19,8.19,0,0,1-.35-.75,8.57,8.57,0,0,0-1.72-2.66S152.1,92.21,134.15,85Z"/><path class="cls-24" d="M150.05,115.59a9.87,9.87,0,0,1-9.87-9.87h19.75A9.87,9.87,0,0,1,150.05,115.59Z"/><path class="cls-25" d="M147.62,115.52a10.14,10.14,0,0,0,1.23.07,9.87,9.87,0,0,0,9.88-9.87h-2.46A9.88,9.88,0,0,1,147.62,115.52Z"/><path class="cls-24" d="M141.26,114.88h17.59a1.22,1.22,0,0,1,1.22,1.22H140A1.22,1.22,0,0,1,141.26,114.88Z"/><rect class="cls-26" x="139.95" y="105.72" width="20.3" height="0.3"/></g></g></svg>