<svg xmlns="http://www.w3.org/2000/svg" xmlns:xlink="http://www.w3.org/1999/xlink" viewBox="0 0 180 149.84"><defs><style>.cls-1{opacity:0.1;fill:url(#IM_gradient);}.cls-2{opacity:0.2;fill:url(#IM_gradient-2);}.cls-3{fill:#b2cbfd;}.cls-4{fill:#4f7bba;}.cls-5{fill:#466aa5;}.cls-6{fill:#7a97f3;}.cls-7{fill:#c8dbfc;}.cls-8{fill:#599dad;}.cls-9{fill:#79c8cc;}.cls-10{fill:#6bb7bf;}.cls-11{fill:#f1a34f;}.cls-12{fill:#ffb973;}.cls-13{fill:#d86713;}.cls-14{fill:#ffb27d;}.cls-15{fill:#2b478b;}.cls-16{fill:#233862;}.cls-17{fill:#bc3f3f;}.cls-18{fill:#a53d38;}.cls-19{fill:#2c3a64;}.cls-20{fill:#ed985f;}.cls-21{fill:#182c4c;}.cls-22{fill:#abddda;}.cls-23{fill:#0f2949;}.cls-24{fill:#f99746;}.cls-25{fill:#ed7d2b;}.cls-26{fill:#163560;}.cls-27{fill:#fff;}</style><linearGradient id="IM_gradient" x1="10.81" y1="74.92" x2="179.58" y2="74.92" gradientUnits="userSpaceOnUse"><stop offset="0" stop-color="#0e3997"/><stop offset="0.49" stop-color="#007cc4"/><stop offset="1" stop-color="#00aeef"/></linearGradient><linearGradient id="IM_gradient-2" x1="0" y1="70.2" x2="180" y2="70.2" xlink:href="#IM_gradient"/></defs><g id="Layer_2" data-name="Layer 2"><g id="Layer_1-2" data-name="Layer 1"><path class="cls-1" d="M25.07,12.39c-38.17,32.4,5.55,118.38,69,136.35,19.44,4.25,41.73-4.24,58.68-18.62,17.42-14.79,29.21-35.8,26.46-55.61C173.5,33.52,124.2,6.77,88,1.6c-30.52-4.36-50.83.52-62.93,10.79"/><path class="cls-2" d="M179.25,70.08c8.1-55.58-51.31-75.75-88.5-62.93C49,21.55,6.3,6,.48,63.43-10.45,171.4,167.75,149,179.25,70.08Z"/><path class="cls-3" d="M128.64,90.61c-.34.82-3.66,1.58-8.57,2.25-.87.12-1.78.24-2.74.35-16.72,2-62.53,3.07-65.36,2.49-3.9-.81-11.66-40-11.66-40s22.86-.4,41-.59c6.21-.07,27.82-.23,31.82-.23C119.35,54.84,129.2,89.29,128.64,90.61Z"/><path class="cls-3" d="M122.31,85.58s-7-26.89-7.52-29.15A1.77,1.77,0,0,0,113.17,55c1.23-.12,2.13-.13,2.13-.13a5.69,5.69,0,0,1,5.36,4.06c1.7,5.3,5.08,15.48,8.25,25.43C128.75,84.32,122.31,85.58,122.31,85.58Z"/><path class="cls-3" d="M164.85,109.38c-1.12,6.74-8.44,11-15.94,11H134l1.15-39s14.2-4.63,17.76-.56c3.12,3.57,11.59,17.69,12,26.05A10.82,10.82,0,0,1,164.85,109.38Z"/><path class="cls-4" d="M164.85,109.38c-1.12,6.74-8.44,11-15.94,11h-7.3C146.48,117.32,150.87,107.77,164.85,109.38Z"/><path class="cls-5" d="M125.38,85.27s20.06-9.62,23.86-3.34c2,3.34,7.57,16.66,8,25,.4,8.13-7.09,13.47-14.79,13.47H128.76Z"/><path class="cls-6" d="M151.81,113.85l-.68.53a31.28,31.28,0,0,1-11,4.89,43.72,43.72,0,0,1-10.59,1.19H74.27l-.61-3.2L68.08,85s77.3-1.74,83.59,1.85c2.92,1.66,4.57,8.57,5.49,16.17C157.65,107,155.58,110.84,151.81,113.85Z"/><path class="cls-4" d="M151.81,113.85l-.68.53a31.28,31.28,0,0,1-11,4.89,43.72,43.72,0,0,1-10.59,1.19H74.27l-.61-3.2a212.07,212.07,0,0,1,41.39-4.05C130,113.37,142.43,113.35,151.81,113.85Z"/><path class="cls-7" d="M89.53,109.73c-1.2,6.54-7.82,10.69-14.6,10.69H61.26l1.06-39.31s13.05-4.28,16.33-.21C81.52,84.47,89.3,98.59,89.71,107A11.52,11.52,0,0,1,89.53,109.73Z"/><path class="cls-3" d="M89.53,109.73c-1.2,6.54-7.82,10.69-14.6,10.69H64C69.11,117.15,76,108.13,89.53,109.73Z"/><path class="cls-5" d="M81.71,110a11.93,11.93,0,0,1-3.84,6.48h0A15.05,15.05,0,0,1,74,119a16.77,16.77,0,0,1-5.65,1.41l-.31,0H52.7l-4.25,0h-.92c-1.34,0-2.54,0-3.39,0a24.07,24.07,0,0,1-3.38-.25,15.56,15.56,0,0,1-3.77-1q-.3-.12-.6-.27t-.6-.3a12.26,12.26,0,0,1-4.63-4.43,18.75,18.75,0,0,1-1.64-3.36,30.51,30.51,0,0,1-1.41-5.24l0-.15c-.16-.9-.31-1.85-.43-2.85,0-.45-.1-.92-.15-1.39-.16-1.67-.27-3.47-.32-5.4,0-.17,0-.34,0-.51v-.11c0-1.54,0-3.15,0-4.85,0-.74,0-1.5.05-2.28,0-.36,0-.71,0-1.07.07-1.81.17-3.7.3-5.68.06-.89.12-1.8.2-2.73q.43-5.72,1.17-12.39c.55-5.06,1.19-8.59,2.12-9.4,1.37-1.18,4.23-1.66,6.21-1.85h0c1.24-.12,2.14-.13,2.14-.13h.22l.23,0h.21l.12,0,.22,0,.15,0h0l.11,0,.21.06.14,0,.09,0a5.68,5.68,0,0,1,1.09.51,5.93,5.93,0,0,1,2.56,3.28c1.59,5,4.42,13.83,7.37,23.11,0,0,0,.09,0,.14l.51,1.6a1,1,0,0,1,0,.16l0,.08.52-.21h0c.7-.29,1.5-.62,2.37-1h0l1.39-.51c1.35-.49,2.8-1,4.28-1.38.65-.19,1.31-.36,2-.51.84-.2,1.68-.36,2.49-.49h.07l.29,0c.57-.08,1.14-.13,1.68-.17h0c2.78-.16,5.08.37,6.14,2.12a32.76,32.76,0,0,1,1.52,3,93.25,93.25,0,0,1,4,10.58A49.32,49.32,0,0,1,82,106.93,12.46,12.46,0,0,1,81.71,110Z"/><path class="cls-7" d="M46.4,85.58s-7-26.89-7.52-29.15A1.77,1.77,0,0,0,37.25,55c1.24-.12,2.14-.13,2.14-.13a5.7,5.7,0,0,1,5.36,4.06c1.7,5.3,4.83,15.07,8,25C52.59,83.92,46.4,85.58,46.4,85.58Z"/><path class="cls-8" d="M53.72,96.5s-4.13,3.08-4.94,2.89,3-3.32,3-3.32c-1.44-.69-5.92-.26-5.92-.26s-1.49,4.81-2.22,4.43,1.53-4.19,1.53-4.19a7.63,7.63,0,0,0-3.57,1.09c-2.69,2.13.18,5.48.18,5.48a8.27,8.27,0,0,1-2.26,3.17,7.12,7.12,0,0,0-2.6,5l.45,0a12.2,12.2,0,0,1,2-4.41l.2-.21a6.17,6.17,0,0,0,.45-.45,6.56,6.56,0,0,1,1.93-1.45,1,1,0,0,1,0-.22l0,.22c.15,1.69,3.43,3.17,5.45,3.47s1.4-.52.7-1.76-2.9-1.78-3.4-2.35.54-.56,1.75,0,1.39,2,3.34,3,4.89-2.31,4.89-2.31c-1.55-.08-3.78-1.77-3.69-2.29s3.77.9,4.4,1,2.07-.71,2.29-3.26S53.72,96.5,53.72,96.5Z"/><path class="cls-9" d="M31.76,98.41s4.57-2.56,2.43-6a9,9,0,0,0-3.53-2.68s1,5.18,0,5.3S30,89.15,30,89.15s-4.81-2.31-6.7-2.13c0,0,3,5,2,4.93S21,86.71,21,86.71s-4.94-.91-5.73,2,.49,4.39,1.22,4.57,5.42.12,5.3.73-3.29,1.59-5.06,1c0,0,1.95,4.81,4.51,4.57s3.35-1.83,4.93-1.95,2.74.3,2,.73-3.47.14-4.75,1.23-2.31,1.75.06,2.24,6.64.18,7.49-1.64Z"/><path class="cls-10" d="M33,102.86a9.74,9.74,0,0,1-1.22-4.45C30.3,93.78,17.5,89.64,17.5,89.64c16.27,6.58,13.4,10.6,13.4,10.6a7.56,7.56,0,0,1,1.56,2.41,5.93,5.93,0,0,0,.32.68h0c.06.13.11.24.14.32.84,2.09.4,5.71.4,5.71l.5.14A8.42,8.42,0,0,0,33,102.86Z"/><path class="cls-10" d="M39,94.88s-6-3.37-3.21-7.95c0,0,2.25-2.81,4.66-3.53,0,0-1.28,6.82,0,7s.88-7.7.88-7.7,6.35-3.05,8.84-2.81c0,0-3.94,6.66-2.65,6.5s5.7-6.9,5.7-6.9,6.5-1.21,7.54,2.64-.64,5.79-1.6,6-7.15.16-7,1,4.34,2.09,6.67,1.37c0,0-2.57,6.34-5.94,6s-4.42-2.41-6.51-2.57-3.61.4-2.57,1,4.58.19,6.27,1.62,3,2.32-.08,3-8.76.24-9.88-2.17Z"/><path class="cls-8" d="M57.81,83.32S41,88.78,39,94.88a12.69,12.69,0,0,1-1.6,5.86,11.14,11.14,0,0,0-1.12,8.76l.67-.18s-.58-4.77.52-7.53l.19-.43c.2-.39.34-.68.42-.89.61-1.24,1.47-2.84,2-3.18C40.15,97.29,36.38,92,57.81,83.32Z"/><path class="cls-11" d="M37.29,119.92A11.79,11.79,0,0,1,25.5,108.13H49.09A11.79,11.79,0,0,1,37.29,119.92Z"/><path class="cls-12" d="M34.39,119.83a11.81,11.81,0,0,0,13.26-11.7H44.72A11.8,11.8,0,0,1,34.39,119.83Z"/><path class="cls-11" d="M26.79,119.07h21a1.45,1.45,0,0,1,1.45,1.45H25.33A1.45,1.45,0,0,1,26.79,119.07Z"/><rect class="cls-13" x="25.23" y="108.13" width="24.25" height="0.36"/><path class="cls-14" d="M120.81,64.08c.44.68,2.49-.65,2.77-.82l0,0-.1-1.45s-2-.66-2.44-.42A2.76,2.76,0,0,0,120.81,64.08Z"/><path class="cls-14" d="M123.52,61.78l-.19,1.42.25.06c.51.1,1.73.38,3.13.62a30.23,30.23,0,0,0,4,.52,5.71,5.71,0,0,0,1.71-.12c1.73-.47,4.93-2.53,7.28-4.83a.91.91,0,0,0,.17-.17,13.55,13.55,0,0,0,2-2.39,5.58,5.58,0,0,0,.61-1.26,6,6,0,0,0,.34-1.89,4.8,4.8,0,0,0-.36-1.9.67.67,0,0,0-.1-.23,4,4,0,0,0-.8-1.22c-.19-.15-2.84,1.87-3.05,2.12-2.24,2.61-5,6.74-6.62,7.75a10,10,0,0,1-2.51.69h-.07c-1,.18-2,.35-3,.48C124.77,61.66,123.52,61.78,123.52,61.78Z"/><path class="cls-15" d="M129.35,61a10.36,10.36,0,0,0,.39,1.81,4.46,4.46,0,0,0,1.07,1.9c.52-.09,1.45-.18,1.86-.3,1.5-.41,4-2.1,6.11-4q.5-.43,1-.9a.91.91,0,0,0,.17-.17,13.55,13.55,0,0,0,2-2.39l-1-6.52h0l-.09.06h0l-.49.33h0a7.3,7.3,0,0,0-.74.68s0,0,0,0l-.28.29s-.05,0-.07.07l-.6.7c-2.24,2.61-5,6.74-6.62,7.75a10,10,0,0,1-2.51.69h0S129.36,61,129.35,61Z"/><path class="cls-16" d="M129.74,62.79a4.46,4.46,0,0,0,1.07,1.9c.52-.09,1.45-.18,1.86-.3,1.5-.41,4-2.1,6.11-4,.16-.76-4.83,1.95-5.52,2.5C132.74,63.26,130.73,63,129.74,62.79Z"/><path class="cls-17" d="M136.35,117.69l1.54.57s6.69-9.28,7.52-17.45a12.32,12.32,0,0,0-.22-4.18s.06-.37.18-1c0-.31.12-.68.19-1.11.22-1.24.52-2.95.86-4.89.79-4.47,1.81-10.19,2.6-14.39l-.41-.14-4.5-1.45-.93-3-3.34-.88s-.75,1.47-1.42,8.37c-.12.91-.23,1.91-.32,3a59,59,0,0,0,.32,12.1c.15,1.2.35,2.44.59,3.72a16.5,16.5,0,0,1,.13,3.66C138.8,107.31,136.35,117.69,136.35,117.69Z"/><path class="cls-18" d="M138.1,81.15l7.27,14.45c0-.31.12-.68.19-1.11.22-1.24.52-2.95.86-4.89.79-4.47,1.81-10.19,2.6-14.39l-.41-.14-4.5-1.45-.93-3-3.34-.88s-.75,1.47-1.42,8.37C138.3,79.07,138.19,80.07,138.1,81.15Z"/><path class="cls-17" d="M141.3,71.65l.17-1.45c2.82.75,10.35-2.09,10.35-2.09s2.73,2.4,2.37,8.16c-.18,2.8-.5,14.73-.83,18.27-.12,1.27-.23,2.19-.27,2.55h0a.53.53,0,0,0,.08.32A16.13,16.13,0,0,1,154.4,100c3.28,8.73-.5,19.48-.5,19.48l-1-.4s-2.15-12-3.9-17.25a10.59,10.59,0,0,0-.84-2,22.81,22.81,0,0,1-2.11-5.62,138.35,138.35,0,0,1-2.83-14.89C143.15,79.3,141.3,71.65,141.3,71.65Z"/><path class="cls-14" d="M144.2,55.28c4.59,1.59,5.55-5.64,5.26-5.69-.49-.46-1.1-2.2-1-4.79l-.22,0-3.82.62s.05,1.19,0,2.31a4.61,4.61,0,0,1-.29,1.9l-.48,0h0C143.6,49.8,143,54.86,144.2,55.28Z"/><path class="cls-19" d="M149.55,35.58c.06-.2.84-2.33,4.19-1.5,0,0-1.69-.27-2.17.36a2.79,2.79,0,0,1,2.18,0c.83.54.9,2.28.76,2.8s-1.13,2.06-1.74,2a2,2,0,0,1-.7-.2,7.31,7.31,0,0,1,.22.92c.55,3.1-1.58,5.36-2.61,4.74-.67-.39-1.22.78-1.22.78l-5.36-7.65S147.18,33.28,149.55,35.58Z"/><path class="cls-20" d="M144.42,45.46s.05,1.19,0,2.31c2.12,0,3.31-1.88,3.81-2.93Z"/><path class="cls-14" d="M143.68,46.49s5,.26,5.12-2.86.84-5.19-2.36-5.49-3.86.87-4.15,1.9S142.38,46.35,143.68,46.49Z"/><path class="cls-19" d="M142.5,38.31c.81-.91,1.39-.68,1.71-.39a3.51,3.51,0,0,1,4.48.88,6,6,0,0,0,1.83,3.59s-.94.54-3-.08a3.62,3.62,0,0,1-1.67-1.24,11.56,11.56,0,0,0,1.93,2.53c-2.48-1.25-3.37-4.78-3.46-5.16a4,4,0,0,0-1.14,1.42c-.28.79-.45,2.42-.92,2.35C142.24,42.21,141.29,39.68,142.5,38.31Z"/><path class="cls-21" d="M148.19,120.28H156a4.34,4.34,0,0,0-.22-2.08c-.39-.86-1-1.25-.85-2.3a2.81,2.81,0,0,1-2.42.93,8.67,8.67,0,0,1-1.35,1.74C150.61,118.94,148.35,118.81,148.19,120.28Z"/><path class="cls-21" d="M131.52,120.28h7.77a3.22,3.22,0,0,0-.22-2.08,1.51,1.51,0,0,1,.05-1.79,3,3,0,0,1-1.3.25,2.7,2.7,0,0,1-1.16-.41,26.7,26.7,0,0,1-2.21,2.32C133.94,118.94,131.68,118.81,131.52,120.28Z"/><path class="cls-15" d="M155.44,80.83s-6.8,3.27-15.91-1a3,3,0,0,1-.23-1.76,12.34,12.34,0,0,0-.72,1.54A2.6,2.6,0,0,1,137,78.8l.17-1.6,1.06-10.32.69-6.67,1.92-9.85,3.12-.67s.19,2.82,1.22,3.9a11.17,11.17,0,0,0,4.58-4s4.42,1.12,4.82,3.42a52,52,0,0,1,.63,5.64c.09,1.28.15,2.64.18,4.06C155.53,69.49,155.57,75.57,155.44,80.83Z"/><path class="cls-16" d="M149,48.72s.78.28.81.84c0,0-2.24,3.88-4.58,4Z"/><path class="cls-16" d="M145.19,53.59a26.84,26.84,0,0,1-.89-4.36s-.91.08-1,.61C143.3,49.84,144.22,53.06,145.19,53.59Z"/><path class="cls-16" d="M151.06,53.66c-.11.18-10.54,9.56-11.35,11.79s2.73,1.85,2.86,1.56S151.06,53.66,151.06,53.66Z"/><path class="cls-16" d="M153.07,56s-6,18.94-15.89,21.23l1.06-10.32,5.23-1.31Z"/><path class="cls-22" d="M129.34,61s0,0,0,0v0S129.34,60.94,129.34,61Z"/><path class="cls-16" d="M108.89,120.4l-.15-44.6s-.35-3.22-3.15-3.23c-3,0-3.18,3.19-3.18,3.19a.34.34,0,0,0,.35.28.37.37,0,0,0,.38-.28s.14-2.47,2.45-2.46c2.16,0,2.42,2.49,2.42,2.49l-.26,44.6Z"/><path class="cls-23" d="M107.36,120.39h1.86l-.15-1.94s0-.27-.36-.29-1-.07-1.11.14S107.36,120.39,107.36,120.39Z"/><path class="cls-14" d="M105.58,70.2l-.13.64a4.09,4.09,0,0,0-3.91,3.34s-.21,1.41.81,1.11.86-1,2.3-1.39,2.37-.68,2.6-1.73l.24-1.16Z"/><path class="cls-24" d="M116.9,42.61s-.86,3.28-1.59,6.28c-.3,1.2-.58,2.37-.77,3.25a8,8,0,0,0-.28,1.59c.62,1-.56,7.2-1.47,9.44-.08.2-.2.44-.33.7-1.28,2.47-4.67,7.31-4.67,7.31a4.22,4.22,0,0,1-1.57-.15,2,2,0,0,1-.87-.83,58.65,58.65,0,0,1,3.14-9.4c.68-1.36,1.74-14.09,3.05-15.8C112.63,43.58,116.9,42.61,116.9,42.61Z"/><path class="cls-25" d="M114.26,53.73c.62,1-.56,7.2-1.47,9.44-.08.2-.2.44-.33.7-1.18-5.36.87-12.91.87-12.91a2.46,2.46,0,0,1,1.21,1.18A8,8,0,0,0,114.26,53.73Z"/><path class="cls-23" d="M122.65,115.57s.29,4.84-.62,4.9c-.12,0-4.63,0-4.63,0l-5.82,0a2,2,0,0,1,1.79-1.71c1.68-.28,4.51-1.45,5.54-3.67S122.65,115.57,122.65,115.57Z"/><path class="cls-26" d="M131.4,115.62s.29,4.84-.62,4.9c-.12,0-4.63,0-4.63,0l-5.82,0a2,2,0,0,1,1.79-1.71c1.68-.28,4.51-1.45,5.54-3.66S131.4,115.62,131.4,115.62Z"/><path class="cls-15" d="M123,103.91a63.1,63.1,0,0,1,.29,7c-.16,3.31-.28,6.11-.28,6.11-2.19.73-6.2-.2-6.2-.2s-1.37-8.38-2.5-15.07c-.51-3-.93-5.6-1.09-6.82-.5-4,.71-25,.71-25s5.94-3.75,8.37-1.78,3.92,3.88-.14,25.26C121.84,95.09,122.7,99.33,123,103.91Z"/><path class="cls-16" d="M123,103.91a75.69,75.69,0,0,1,.26,7.69c-2-2.18-6.07-6.8-9-9.8-.51-3-.93-5.6-1.09-6.82-.5-4,.71-25,.71-25s5.94-3.75,8.37-1.78,3.92,3.88-.14,25.26C121.84,95.09,122.7,99.33,123,103.91Z"/><path class="cls-15" d="M119.26,70.45s.41,21.06,1.22,25,5,21.8,5,21.8,4.06.4,6.18-.5c0,0-.08-8.28-.77-13.14-.65-4.55-1.83-8.71-1.65-10.35,2.41-21.63.77-23.43-1.8-25.2S119.26,70.45,119.26,70.45Z"/><path class="cls-14" d="M127.38,72.34a4.1,4.1,0,0,0,1.27,5s1.17.81,1.35-.23,0-.68.27-2.14a3.85,3.85,0,0,0-.9-3.64Z"/><path class="cls-14" d="M115.63,37.84a8.11,8.11,0,0,1,1.27,4.77l2.37,5.81,4.37-6.6a15.33,15.33,0,0,1-3.11-5.91Z"/><path class="cls-14" d="M114.9,39.94s5.91.29,6-3.26,1.74-5.9-2.68-6.24c-3.63-.28-4.85,1.23-5.18,2.41S112.71,39.73,114.9,39.94Z"/><path class="cls-24" d="M129.19,71.53c-1.27.11-3,.24-5.14.36l-1.32.07c-6.41.32-9-.73-9-.73s-.17-.14-.11-.89c.3-3.87,1.13-5,1-5.75-.22-1.65-4.15-15.18-4.15-15.18a7.07,7.07,0,0,1,4.7-6.24,12.08,12.08,0,0,1,1.64-.56A2,2,0,0,0,119.12,44a8,8,0,0,0,4.45-2.21,2.52,2.52,0,0,1,.43.09c.16.46-.08.91,0,1.39.38,1.68.6,3.44,1.62,4.77a35.73,35.73,0,0,1,2.6,3.85,33.41,33.41,0,0,1,1.58,3.08C134,64.24,130.68,71.39,129.19,71.53Z"/><path class="cls-25" d="M129.19,71.53c-1.27.11-3,.24-5.14.36-.56-10.43,3.75-20.42,3.75-20.42a4.11,4.11,0,0,1,.45.38,6.67,6.67,0,0,1,1.58,3.08C131.07,59.67,130,67.34,129.19,71.53Z"/><path class="cls-27" d="M113,36.54s-1.18,4.56.77,5.21,7.14.18,7.17-5.42c0,0-2.73,1.6-4,1.56s-2.14-.81-3.34-.23C113.59,37.66,113.15,37.63,113,36.54Z"/><path class="cls-27" d="M120.69,31.56a1,1,0,0,0-.54-.56,6.3,6.3,0,0,0-5.76.11c2.06-2.73,7-2.13,8,.35,1.67,4-1.43,4.87-1.43,4.87s-3.09-1.32-1.29-2.94a3,3,0,0,0,1-1.43h0A1.38,1.38,0,0,0,120.69,31.56Z"/><path class="cls-14" d="M127.46,72.11a21.64,21.64,0,0,0-1.06,2c-.11.38.35.39.62,0A7.91,7.91,0,0,0,127.46,72.11Z"/><path class="cls-24" d="M123.64,41.82s4.13.11,6.3,3c1.66,2.18,3.36,13.88,3.35,15.63s-1.95,11.46-3,12.51a4,4,0,0,1-1.59,0,3.31,3.31,0,0,1-1.53-.76s.59-10.8.59-11.82c0-1.46-4.52-10.47-4.52-10.47S120.86,45.58,123.64,41.82Z"/><path class="cls-14" d="M140.61,64.71c-1.36.45-3.05.89-4.54,1.25-.73.18-1.42.33-2,.46l-1.52.34,0,1.55,1.34.13.4,0,2.33.15h0c1.49.06,3.17.11,4.62,0A4.91,4.91,0,0,1,140.61,64.71Z"/><path class="cls-14" d="M128.25,65.37a7.22,7.22,0,0,0,2.23.36s-1.79-.54-1.24-1a10.25,10.25,0,0,1,2,.54,3.53,3.53,0,0,1,1.2,1c.75.11,1.45.16,1.67.17a.21.21,0,0,0,.09,0l.11,2-.4,0a24.67,24.67,0,0,0-3.23.06,3.11,3.11,0,0,1-3.14-1.68,2,2,0,0,1-.25-1.34C127.39,65.11,127.88,65.27,128.25,65.37Z"/><path class="cls-15" d="M140.61,64.71a4.82,4.82,0,0,0,1.3,4.74c3.24-.22,6.06-4.15,8.13-6.81.29-.36.57-.73.84-1.09a32.61,32.61,0,0,0,2.5-3.9,13.56,13.56,0,0,0,.88-1.94,5.27,5.27,0,0,0,.18-.57c.91-3.26-1.3-4.25-1.71-4a10.53,10.53,0,0,0-1.8,1.78c-1.06,1.26-2.27,2.94-3.43,4.62-.64.92-1.27,1.85-1.87,2.69l-1,1.45A16,16,0,0,1,143,63.62a5.32,5.32,0,0,1-1.74.85Z"/></g></g></svg>