<svg xmlns="http://www.w3.org/2000/svg" xmlns:xlink="http://www.w3.org/1999/xlink" viewBox="0 0 180 149.84"><defs><style>.cls-1{opacity:0.1;fill:url(#IM_gradient);}.cls-2{opacity:0.2;fill:url(#IM_gradient-2);}.cls-3{fill:#b2cbfd;}.cls-4{fill:#4f7bba;}.cls-5{fill:#466aa5;}.cls-6{fill:#7a97f3;}.cls-7{fill:#599dad;}.cls-8{fill:#79c8cc;}.cls-9{fill:#6bb7bf;}.cls-10{fill:#f1a34f;}.cls-11{fill:#ffb973;}.cls-12{fill:#d86713;}.cls-13{fill:#233862;}.cls-14{fill:#2b478b;}.cls-15{fill:#aa3e39;}.cls-16{fill:#b84c42;}.cls-17{fill:#ffb27d;}.cls-18{fill:#2c3a64;}.cls-19{fill:#bc3f3f;}.cls-20{fill:#a53d38;}.cls-21{fill:#ed985f;}</style><linearGradient id="IM_gradient" x1="10.81" y1="74.92" x2="179.58" y2="74.92" gradientUnits="userSpaceOnUse"><stop offset="0" stop-color="#0e3997"/><stop offset="0.49" stop-color="#007cc4"/><stop offset="1" stop-color="#00aeef"/></linearGradient><linearGradient id="IM_gradient-2" x1="0" y1="70.2" x2="180" y2="70.2" xlink:href="#IM_gradient"/></defs><g id="Layer_2" data-name="Layer 2"><g id="Layer_1-2" data-name="Layer 1"><path class="cls-1" d="M25.07,12.39c-38.17,32.4,5.55,118.38,69,136.35,19.44,4.25,41.73-4.24,58.68-18.62,17.42-14.79,29.21-35.8,26.46-55.61C173.5,33.52,124.2,6.77,88,1.6c-30.52-4.36-50.83.52-62.93,10.79"/><path class="cls-2" d="M179.25,70.08c8.1-55.58-51.31-75.75-88.5-62.93C49,21.55,6.3,6,.48,63.43-10.45,171.4,167.75,149,179.25,70.08Z"/><path class="cls-3" d="M88.33,48.1h8.05a23,23,0,0,1,23,23V94.26a0,0,0,0,1,0,0H82.72a0,0,0,0,1,0,0V53.71A5.61,5.61,0,0,1,88.33,48.1Z"/><path class="cls-3" d="M46.07,48.1H82.72a0,0,0,0,1,0,0V71.28a23,23,0,0,1-23,23H51.68a5.61,5.61,0,0,1-5.61-5.61V48.1A0,0,0,0,1,46.07,48.1Z" transform="translate(128.78 142.36) rotate(180)"/><path class="cls-4" d="M40,57.57h0a6,6,0,0,1,6,6V93.28a6,6,0,0,1-6,6h0a6,6,0,0,1-6-6V63.6A6,6,0,0,1,40,57.57Z"/><path class="cls-4" d="M125.38,57.57h0a6,6,0,0,1,6,6V93.28a6,6,0,0,1-6,6h0a6,6,0,0,1-6-6V63.6A6,6,0,0,1,125.38,57.57Z"/><rect class="cls-5" x="46.07" y="94.26" width="73.3" height="21.51"/><rect class="cls-6" x="46.07" y="89.52" width="36.65" height="9.49" rx="3.7"/><rect class="cls-6" x="82.72" y="89.52" width="36.65" height="9.49" rx="3.7"/><path class="cls-6" d="M26.56,88.19a9.76,9.76,0,0,1,19.51,0v27.58h-12V97.69A9.76,9.76,0,0,1,26.56,88.19Z"/><path class="cls-6" d="M138.87,88.19a9.76,9.76,0,0,0-19.51,0v27.58h12V97.69A9.76,9.76,0,0,0,138.87,88.19Z"/><circle class="cls-4" cx="128.69" cy="88.63" r="1.96"/><circle class="cls-4" cx="35.97" cy="88.63" r="1.96"/><path class="cls-4" d="M129.29,88.83s1.26-2,3.05-2a3.89,3.89,0,0,0-3.81,1.58l.34,1.3c1.5-.55,1.32,2.82,1.32,2.82S131.35,87.89,129.29,88.83Z"/><path class="cls-4" d="M129.12,83.61s-1.36,2.84-.07,4.94-.85.32-.85.32S127.11,86.63,129.12,83.61Z"/><path class="cls-4" d="M32.06,90.4s.27-1.92,3.33-1.77,0,1,0,1A3.62,3.62,0,0,0,32.06,90.4Z"/><path class="cls-7" d="M23.86,75.15s2.93,2.18,3.5,2-2.14-2.35-2.14-2.35c1-.49,4.19-.18,4.19-.18s1.06,3.4,1.58,3.14-1.09-3-1.09-3a5.4,5.4,0,0,1,2.53.77c1.91,1.51-.12,3.88-.12,3.88a5.74,5.74,0,0,0,1.59,2.24,5.06,5.06,0,0,1,1.84,3.55l-.31,0A8.72,8.72,0,0,0,34,82.19L33.89,82c-.15-.14-.25-.24-.32-.32a4.52,4.52,0,0,0-1.37-1,.44.44,0,0,0,0-.15l0,.15c-.1,1.2-2.43,2.25-3.86,2.46s-1-.37-.49-1.24,2-1.26,2.41-1.67-.38-.4-1.25,0-1,1.45-2.36,2.11-3.47-1.63-3.47-1.63c1.11-.06,2.68-1.26,2.63-1.62s-2.68.63-3.13.68-1.46-.51-1.62-2.31S23.86,75.15,23.86,75.15Z"/><path class="cls-8" d="M39.42,76.51s-3.24-1.81-1.73-4.27a6.46,6.46,0,0,1,2.5-1.9s-.69,3.67,0,3.75.48-4.14.48-4.14,3.41-1.64,4.74-1.51c0,0-2.11,3.58-1.42,3.49s3.06-3.71,3.06-3.71,3.5-.64,4.06,1.43-.35,3.1-.86,3.23-3.84.09-3.76.52,2.33,1.12,3.58.73c0,0-1.38,3.41-3.19,3.24S44.51,76.08,43.39,76s-1.94.22-1.38.52,2.46.1,3.36.87,1.64,1.24,0,1.59-4.7.13-5.31-1.17Z"/><path class="cls-9" d="M38.55,79.66a6.91,6.91,0,0,0,.87-3.15c1-3.28,10.09-6.22,10.09-6.22C38,75,40,77.8,40,77.8a5.59,5.59,0,0,0-1.1,1.71c0,.11-.12.27-.22.48h0l-.11.23a10.51,10.51,0,0,0-.28,4l-.36.09A6,6,0,0,1,38.55,79.66Z"/><path class="cls-9" d="M34.27,74s4.26-2.39,2.27-5.63a8.45,8.45,0,0,0-3.29-2.5s.91,4.83,0,4.94-.63-5.46-.63-5.46-4.49-2.16-6.26-2c0,0,2.79,4.72,1.88,4.61s-4-4.89-4-4.89-4.6-.85-5.34,1.88.45,4.09,1.13,4.26,5.07.12,5,.68-3.07,1.48-4.72,1c0,0,1.82,4.49,4.21,4.27s3.13-1.71,4.61-1.82,2.56.28,1.82.68-3.24.13-4.44,1.14-2.16,1.65.06,2.1,6.2.17,7-1.54Z"/><path class="cls-7" d="M21,65.82S32.9,69.69,34.27,74a9,9,0,0,0,1.14,4.15,7.88,7.88,0,0,1,.79,6.2l-.48-.13s.42-3.37-.36-5.33l-.14-.3c-.14-.28-.24-.49-.3-.64a7.08,7.08,0,0,0-1.45-2.25S36.15,72,21,65.82Z"/><path class="cls-10" d="M34.41,91.74a8.35,8.35,0,0,1-8.35-8.35H42.77A8.35,8.35,0,0,1,34.41,91.74Z"/><path class="cls-11" d="M32.36,91.68a8.81,8.81,0,0,0,1,.06,8.35,8.35,0,0,0,8.35-8.35H39.67A8.35,8.35,0,0,1,32.36,91.68Z"/><path class="cls-10" d="M27,91.14H41.85a1,1,0,0,1,1,1H25.94A1,1,0,0,1,27,91.14Z"/><rect class="cls-12" x="25.87" y="83.39" width="17.18" height="0.26"/><path class="cls-13" d="M54.75,115.41a.69.69,0,0,1-.63-.41L44.57,94.23a.71.71,0,0,1,.34-.93.7.7,0,0,1,.92.35l9.55,20.77a.69.69,0,0,1-.34.92A.59.59,0,0,1,54.75,115.41Z"/><path class="cls-13" d="M77,115.41a.69.69,0,0,1-.63-.41L66.82,94.23a.71.71,0,0,1,.34-.93.7.7,0,0,1,.92.35l9.55,20.77a.68.68,0,0,1-.34.92A.59.59,0,0,1,77,115.41Z"/><path class="cls-13" d="M75.71,112.86H53.58a.7.7,0,0,1,0-1.39H75.71a.7.7,0,0,1,0,1.39Z"/><path class="cls-14" d="M23,115.41a.59.59,0,0,1-.29-.07.69.69,0,0,1-.34-.92l9.55-20.77a.7.7,0,0,1,.92-.35.71.71,0,0,1,.34.93L23.58,115A.69.69,0,0,1,23,115.41Z"/><path class="cls-14" d="M.7,115.41a.59.59,0,0,1-.29-.07.7.7,0,0,1-.35-.92L9.61,93.65a.7.7,0,1,1,1.27.58L1.33,115A.69.69,0,0,1,.7,115.41Z"/><path class="cls-14" d="M24.12,112.86H2a.7.7,0,0,1,0-1.39H24.12a.7.7,0,0,1,0,1.39Z"/><path class="cls-15" d="M67.61,94.21H44.15a1,1,0,0,1-1-1h0a1,1,0,0,1,1-1H67.61a1,1,0,0,1,1,1h0A1,1,0,0,1,67.61,94.21Z"/><path class="cls-16" d="M50.6,94.21H6a1,1,0,0,1-1-1H5a1,1,0,0,1,1-1H50.6a1,1,0,0,1,1,1h0A1,1,0,0,1,50.6,94.21Z"/><path class="cls-17" d="M119.28,49.86s4.48,1.25,4.32,4.28-7,14.26-7.88,15.24c-1.59,1.77-10.06,7.31-10.06,7.31l-1.2-1s6.7-7.83,7.64-8.5C113.58,66.07,117.55,50.61,119.28,49.86Z"/><path class="cls-17" d="M104.46,75.64a9.68,9.68,0,0,1-1.82.4,1.78,1.78,0,0,0-1.19.64c0,.13,1-.13,1,.06s-.45.62-.91.62.33.91.7,1.28c.1.1.42.48,1.57.06s1.92-2.2,1.92-2.2Z"/><path class="cls-18" d="M116.4,50.1a6.72,6.72,0,0,0,3.46-3.8,3,3,0,0,0-.13-.5l-7-4.45s1.59-4.61,4.12-4.85c.23-.91,1-2.84,4-2.36a4.57,4.57,0,0,0-1.89.65,4.53,4.53,0,0,1,4.91,1.59c2.26,2.6-.27,7.79.36,8.95s3.7,1.89,2.77,5.17-11.1,5.92-11,8.79c0,0-2.63-5.68,0-7.91a4.66,4.66,0,0,0-1.58,2.22S114.45,50.71,116.4,50.1Z"/><path class="cls-19" d="M117.1,112.94l1.69-.24a19.9,19.9,0,0,0,6.5-12.9,14.09,14.09,0,0,0,0-2.6.45.45,0,0,1,.06-.28h0c.18-.27.63-1,1.25-2s1.63-2.82,2.76-4.89c2-3.72,4.42-8.18,5.24-9.6,2.59-4.52,1.34-7.57,1.34-7.57s-7.25-.71-9.23-2.45l-.72,1.1s-1.57,7-1.49,7q-.12.34-.24.72a121.34,121.34,0,0,0-3.44,12.5,20.77,20.77,0,0,0-.55,5.4,8.83,8.83,0,0,1-.12,2C119.48,104.12,117.1,112.94,117.1,112.94Z"/><path class="cls-13" d="M113.57,115.07h7a3.89,3.89,0,0,0-.19-1.88c-.36-.78-.86-.8-.07-2a4.31,4.31,0,0,1-2.9.52,8.64,8.64,0,0,1-1.21,1.85C115.76,113.86,113.71,113.74,113.57,115.07Z"/><path class="cls-20" d="M124.3,79.25c.61,3.38,2.06,9,5.1,10.81,2-3.72,4.42-8.18,5.24-9.6,2.59-4.52,1.34-7.57,1.34-7.57s-7.25-.71-9.23-2.45l-.72,1.1s-1.57,7-1.49,7Q124.42,78.88,124.3,79.25Z"/><path class="cls-19" d="M129.23,73.42l0-1.32c2.62.33,9-3.13,9-3.13s2.74,1.83,3.12,7c.18,2.54,1.34,13.28,1.47,16.49,0,1.16.06,2,.06,2.32h0a.46.46,0,0,0,.11.27,13.8,13.8,0,0,1,1.42,2.18c4,7.43,1.91,17.53,1.91,17.53l-.93-.23s-3.38-10.47-5.59-15a9.11,9.11,0,0,0-1-1.72,20.41,20.41,0,0,1-2.56-4.78,124.25,124.25,0,0,1-4.35-13C131.81,80.06,129.23,73.42,129.23,73.42Z"/><path class="cls-17" d="M119.63,56.25c4.39,0,3.83-7.18,3.56-7.13a5.19,5.19,0,0,1-2.74-3.34l-.41.34L117,47.76s.39,1,.68,2a3.94,3.94,0,0,1,.3,1.71C117.69,51.57,118.45,56.24,119.63,56.25Z"/><path class="cls-21" d="M117,47.76s.39,1,.68,2c1.82-.61,2.29-2.58,2.41-3.63Z"/><path class="cls-17" d="M116.64,49.28s4.83-1.74,3.71-4.73-1.27-5.23-4.4-4.25-3.3,2.35-3.17,3.44S115.35,49.65,116.64,49.28Z"/><path class="cls-18" d="M112.3,42c.4-1.18,1-1.2,1.45-1a7.77,7.77,0,0,1,5.59-2.35c1.13,2,2.14,4.08,2.14,4.08s-.68.87-2.89,1.11a3.57,3.57,0,0,1-2.06-.51,12,12,0,0,0,2.82,1.63c-2.83-.21-5.07-3.19-5.3-3.51a4.11,4.11,0,0,0-.52,1.79c0,.85.53,2.46.06,2.58C113.59,45.8,111.7,43.79,112.3,42Z"/><path class="cls-13" d="M140.73,115.07h7a3.81,3.81,0,0,0-.2-1.88c-.35-.78-.9-1.13-.77-2.08a2.53,2.53,0,0,1-2.19.84,7.85,7.85,0,0,1-1.22,1.58C142.92,113.86,140.87,113.74,140.73,115.07Z"/><path class="cls-14" d="M123.18,49a11.54,11.54,0,0,0-5.52,1.79l-1,6.56c-.31,2.36-.34,4.25.63,5.14a7.13,7.13,0,0,0,3,1.62c2.11.52,2.49.24,3.25,1,.28.27,0-.14,0,.1-.12,1.37,1.85,7.84,1.85,7.84,10.31,1.69,13.71-3.7,13.71-3.7C135.43,57.34,123.18,49,123.18,49Z"/><path class="cls-13" d="M118.83,63.55a8.35,8.35,0,0,0,4.41.92,19.45,19.45,0,0,0,2-10.79s-5.38,1-4.68,4.15C121.13,60.61,119.34,62.78,118.83,63.55Z"/><path class="cls-13" d="M94.22,114.1l-1.14-1,33.17-36.53a.76.76,0,0,1,1.09,0h0a.76.76,0,0,1,0,1.08Z"/><path class="cls-17" d="M119.48,52.16s4.44-1.4,6,1.22,1.93,15.78,1.73,17.07c-.36,2.35-4.42,11.62-4.42,11.62l-1.58-.22s1.33-10.22,1.75-11.3C123.57,68.85,118.45,53.73,119.48,52.16Z"/><path class="cls-14" d="M126,55.09c0,.07-3.38,3-6.45,2.76,0,0-3-5.58.12-6.55s5.33-.79,6,.62A5.45,5.45,0,0,1,126,55.09Z"/><path class="cls-17" d="M121.17,81.85a9.13,9.13,0,0,1-1.31,1.33,1.75,1.75,0,0,0-.64,1.18c0,.13.78-.67.9-.52s.12,1.87-.27,2.12-1,.91-.88,1a7.61,7.61,0,0,0,3.25-1.92c.73-1,.51-3.21.51-3.21Z"/><path class="cls-13" d="M106.42,81.42a.43.43,0,0,1-.28-.11L98.4,74a.41.41,0,0,1,.56-.6l7.74,7.34a.4.4,0,0,1,0,.57A.39.39,0,0,1,106.42,81.42Z"/><path class="cls-17" d="M102.25,78.6a4.08,4.08,0,0,0,1.89-.39c.48-.4-1.4-1.6-2.06-1.34s-.84.39-.54.87A4.81,4.81,0,0,0,102.25,78.6Z"/><path class="cls-17" d="M102,76.23a1.94,1.94,0,0,0-.71.61c-.18.33,1.44,0,1.44,0Z"/><path class="cls-21" d="M103.33,78.51s.81-.43.57-.94a1.63,1.63,0,0,0-.75-.73,2.41,2.41,0,0,1,.88.51C104.43,77.75,104.55,78.35,103.33,78.51Z"/><path class="cls-10" d="M99.81,74.51h0a1.35,1.35,0,0,1-1.91,0l-5.83-5.79a1.36,1.36,0,0,1,0-1.91h0a1.34,1.34,0,0,1,1.9,0l5.84,5.8A1.34,1.34,0,0,1,99.81,74.51Z"/><path class="cls-10" d="M91.8,67s-.2.21-.2.28.1,0,.1,0l-.15.29.09.09-.15.31s.07.16.11.17.13.13.11.16-.14.31-.07.32.21.11.28.11.09.1.09.16A.35.35,0,0,1,92,69a.48.48,0,0,1,.19,0,.23.23,0,0,1,.06.06l.15.18s0,.13.15.08a1,1,0,0,0,.2-.09l.13-.08V69l.08,0,.06,0,.17-.08a.69.69,0,0,0,.29-.32c0-.09,0-.22.16-.28s.43-.25.43-.25h0s.1-.31.11-.32a.68.68,0,0,1,.16-.2c.16-.16.11-.17.18-.17s.37.16.08-.11-.23-.28-.34-.3-.23-.1-.24-.17,0-.11,0-.11,0-.13-.18-.21a.9.9,0,0,0-.4-.06s-.15.09-.24,0-.45-.12-.46-.11-.1,0-.13.06l0,0s.25-.07,0,.09-.1.19-.24.17-.18-.11-.22,0a4.53,4.53,0,0,0-.25.42S91.8,67,91.8,67Z"/><path class="cls-10" d="M100.48,74.78s.2-.2.21-.27-.1,0-.1,0l.15-.28-.1-.1.16-.3s-.07-.17-.12-.18-.12-.12-.11-.16.15-.31.08-.31-.21-.11-.28-.12-.09-.1-.09-.16a.24.24,0,0,1,0-.09.41.41,0,0,1-.18,0l-.07-.06-.15-.18s0-.13-.15-.08a.78.78,0,0,0-.19.09l-.13.08v.21l-.09,0,0,0L99.1,73a.74.74,0,0,0-.29.32c0,.1,0,.22-.17.28l-.42.25h0a3.43,3.43,0,0,1-.12.33s0,0-.15.19-.11.17-.18.18-.37-.17-.09.1.23.28.35.31a.32.32,0,0,1,.24.17c0,.06,0,.1,0,.1s0,.14.18.21a.87.87,0,0,0,.39.06s.16-.09.24,0,.46.13.47.12.1,0,.13-.07l0,0s-.24.07,0-.09.1-.18.24-.17.17.11.22,0,.26-.38.24-.42S100.48,74.78,100.48,74.78Z"/><path class="cls-10" d="M97.28,71.53s.2-.2.21-.27-.1,0-.1,0l.15-.29-.1-.09.16-.31s-.08-.17-.12-.17.29.21.3.18a1,1,0,0,0-.33-.66c-.07,0-.21-.11-.29-.12s-.08-.09-.08-.16a.2.2,0,0,1,0-.08s-.14,0-.18-.06l-.07,0-.15-.19s0-.12-.15-.08a1.51,1.51,0,0,0-.2.1l-.12.08,0,.21-.08,0-.05,0-.17.09a.64.64,0,0,0-.29.32c0,.09,0,.22-.17.28l-.42.24h0s-.11.32-.12.33,0,0-.15.19-.12.18-.18.18-.37-.17-.09.11.23.27.35.3.22.1.23.17l0,.1s0,.14.17.22a1.41,1.41,0,0,1,.31.12c0,.1.24.29.32.4s.46-.32.47-.33.11,0,.14-.07l0,0s-.24.08,0-.09.1-.18.24-.16.18.1.22,0a2.28,2.28,0,0,0,.25-.42S97.28,71.53,97.28,71.53Z"/><path class="cls-9" d="M92.66,69.3s-.26.28.06.4.29,0,.37.22a1.62,1.62,0,0,1,.08.34s-.17.19.17.17.21-.14.35.09.15.34.29.43.1.12.31.27a.57.57,0,0,0,.43.13s.12.12.18,0,0-.47,0-.58,0-.17,0-.17l.35-.13h.14l.06,0,.06-.12s0-.06,0-.06-.06-.37,0-.4-.14,0,.06,0,.37-.19.43-.18.07,0,.1,0l0,0,.14-.23c0-.15-.38-.29-.23-.37s.15.12.22.15.66.12.16-.2-.48-.67-.54-.66a.67.67,0,0,1-.32-.19s-.09-.34-.32-.32-.25,0-.19-.17.05-.28-.11-.25a.93.93,0,0,1-.31,0s.21-.22-.09-.15-.62.13-.65.26a1.89,1.89,0,0,1-.22.44c-.13.26-.28.23-.43.38s0-.14-.21.21-.26.17-.24.35a.41.41,0,0,1-.11.31Z"/><path class="cls-9" d="M99.68,72.53s.26-.27-.06-.39-.29,0-.37-.23a1.62,1.62,0,0,1-.08-.34s.17-.19-.17-.17-.21.15-.36-.09-.14-.34-.28-.43-.1-.12-.31-.27a.63.63,0,0,0-.43-.13s-.12-.12-.18,0,0,.46,0,.57a1.37,1.37,0,0,1,0,.17l-.35.13a.49.49,0,0,0-.14,0l-.06,0-.06.12s0,0,0,0,.07.37,0,.41.14,0-.06,0-.37.2-.43.19-.07,0-.1,0l0,0-.14.24c0,.14.38.29.22.37s-.15-.12-.21-.15-.67-.13-.16.19.48.67.54.66a1.08,1.08,0,0,1,.32.19c0,.06.09.35.32.32s.25,0,.19.18,0,.27.11.25a.93.93,0,0,1,.31,0s-.21.21.09.15.62-.13.65-.27.08-.17.21-.43.29-.24.44-.39,0,.15.21-.2.26-.18.24-.36a.41.41,0,0,1,.11-.31Z"/><path class="cls-19" d="M90.39,112.72h0a2.21,2.21,0,0,0-.72.11l-4.38,1.37a.6.6,0,0,0-.42.58v.29H99.16v-2.35Z"/><path class="cls-20" d="M102,115.07H93.5v-.29a.61.61,0,0,1,.43-.58l4.38-1.37a2.4,2.4,0,0,1,2.15.37l1.19.9a.59.59,0,0,1,.24.41Z"/><path class="cls-5" d="M176.43,113.17a2,2,0,1,1-2-2A2,2,0,0,1,176.43,113.17Z"/><path class="cls-10" d="M153.41,114.58h24.81l.68-.69a3.73,3.73,0,0,0-.33-5.58,32.06,32.06,0,0,0-19.88-6.91c-6.16,0-8.1,3.56-8.11,6.92S153.41,114.58,153.41,114.58Z"/><path class="cls-12" d="M178.57,108.31a32.47,32.47,0,0,0-7.57-4.45,33.7,33.7,0,0,1,5.11,3.29,3.74,3.74,0,0,1,.33,5.59l-.68.69h-23.3a10.33,10.33,0,0,0,.95,1.15h24.81l.68-.69A3.73,3.73,0,0,0,178.57,108.31Z"/><path class="cls-12" d="M164.72,114a6.16,6.16,0,1,0-8.73,0Z"/><circle class="cls-5" cx="159.56" cy="109.04" r="6.15"/><circle class="cls-6" cx="159.56" cy="109.04" r="5"/><path class="cls-12" d="M150.59,108.25c-1.83-.11-6.25-.66-7.88-3.36-1.07-1.78-.77-4.24.9-7.32A18.6,18.6,0,0,0,146,88a17.5,17.5,0,0,0-2.25-8.11c-2.1-3.71-5.4-6.19-8.4-6.32-4.69-.2-7.25,1.63-8.35,2.74a.79.79,0,0,1,.36.19.76.76,0,0,1,.25.51,7.46,7.46,0,0,1,1.32-1,11,11,0,0,1,6.38-1.47c2.69.12,5.69,2.42,7.63,5.85a17,17,0,0,1-.12,16.81c-1.84,3.39-2.14,6.16-.88,8.24,1.93,3.19,6.9,3.72,8.77,3.81A8.53,8.53,0,0,1,150.59,108.25Z"/><rect class="cls-10" x="149.87" y="108.04" width="1.78" height="1.45" rx="0.57" transform="translate(8.53 -10.94) rotate(4.28)"/><path class="cls-11" d="M150.76,108l-.61-.05a.22.22,0,0,0-.24.2l0,.25a.22.22,0,0,1,.23-.15l.61,0a.14.14,0,0,0,0,.07l0,1.08h0v0l0-1.35A.14.14,0,0,1,150.76,108Z"/><path class="cls-11" d="M151,109.36c0-3.75,2.18-7.73,9.06-7.73a38,38,0,0,1,4.07.23,32.34,32.34,0,0,0-5.44-.46c-6.16,0-8.1,3.56-8.11,6.92a7.58,7.58,0,0,0,.71,3.09A7.69,7.69,0,0,1,151,109.36Z"/><polygon class="cls-6" points="82.72 52.58 83.1 92.53 82.5 91.93 82.72 52.58"/></g></g></svg>